<svg width="320" height="139" viewBox="0 0 320 139" fill="none" xmlns="http://www.w3.org/2000/svg">
<rect width="320" height="139" fill="#B7CCD8"/>
<path d="M180.272 75.5876C178.885 74.3235 176.645 74.3235 175.257 75.5876L167.078 83.0864L151.82 69.0996C150.433 67.8354 148.193 67.8354 146.806 69.0996L121.911 91.9218C120.536 93.2076 120.558 95.2718 121.96 96.5323C122.613 97.1187 123.118 97.8063 124.032 97.8181H195.161C197.125 97.8285 199.094 96.0237 199.106 94.223C199.112 93.347 198.732 92.506 198.054 91.8892L180.272 75.5876Z" fill="white"/>
<path d="M173.485 61.4091C179.443 61.4091 184.273 56.5792 184.273 50.6212C184.273 44.6632 179.443 39.8333 173.485 39.8333C167.527 39.8333 162.697 44.6632 162.697 50.6212C162.697 56.5792 167.527 61.4091 173.485 61.4091Z" fill="white"/>
</svg>
