<svg width="525" height="139" viewBox="0 0 525 139" fill="none" xmlns="http://www.w3.org/2000/svg">
<rect width="525" height="139" fill="#B7CCD8"/>
<path d="M282.772 75.5877C281.385 74.3235 279.145 74.3235 277.757 75.5877L269.578 83.0864L254.32 69.0997C252.933 67.8355 250.693 67.8355 249.306 69.0997L224.411 91.9218C223.036 93.2076 223.058 95.2718 224.46 96.5323C225.113 97.1188 225.618 97.8063 226.532 97.8181H297.661C299.625 97.8285 301.594 96.0237 301.606 94.223C301.612 93.347 301.232 92.506 300.554 91.8892L282.772 75.5877Z" fill="white"/>
<path d="M275.985 61.4091C281.943 61.4091 286.773 56.5792 286.773 50.6212C286.773 44.6632 281.943 39.8333 275.985 39.8333C270.027 39.8333 265.197 44.6632 265.197 50.6212C265.197 56.5792 270.027 61.4091 275.985 61.4091Z" fill="white"/>
</svg>
